<svg xmlns="http://www.w3.org/2000/svg" style="width:570px;height:311px"><defs><style data-styled="true" data-styled-version="6.0.0-beta.15">.ljwMKG{font:500 18px/1.2 "Public Sans",sans-serif;letter-spacing:-0.02em;fill:#012322;}/*!sc*/
data-styled.g1[id="sc-iYUHtB"]{content:"ljwMKG,"}/*!sc*/
.gSsUEN{font:500 16px/1.2 "Public Sans",sans-serif;letter-spacing:-0.01em;fill:rgba(53,83,98,0.6);}/*!sc*/
data-styled.g2[id="sc-frpNVO"]{content:"gSsUEN,"}/*!sc*/
.juEvwN{stroke:rgba(53,83,98,0.2);stroke-width:2px;}/*!sc*/
data-styled.g3[id="sc-ftFTLX"]{content:"juEvwN,"}/*!sc*/
.cfkfRh{stroke:rgba(53,83,98,0.6);stroke-width:2px;stroke-dasharray:4 4;}/*!sc*/
data-styled.g4[id="sc-cMKkZM"]{content:"cfkfRh,"}/*!sc*/
</style></defs><svg x="0" y="0" style="overflow:visible"><text transform="" x="1" y="1" class="sc-frpNVO gSsUEN" text-anchor="start"><tspan x="1" dy="0.71em">Officers</tspan></text></svg><line x1="165" x2="165" y1="1" y2="311" class="sc-ftFTLX juEvwN"></line><svg x="3" y="0" style="overflow:visible"><text transform="" x="165" y="1" class="sc-frpNVO gSsUEN" text-anchor="start"><tspan x="165" dy="0.71em">0%</tspan></text></svg><line x1="564" x2="564" y1="1" y2="311" class="sc-ftFTLX juEvwN"></line><svg x="-3" y="0" style="overflow:visible"><text transform="" x="564" y="1" class="sc-frpNVO gSsUEN" text-anchor="end"><tspan x="564" dy="0.71em">20%</tspan></text></svg><line x1="264.75" x2="264.75" y1="1" y2="311" class="sc-cMKkZM cfkfRh"></line><svg x="3" y="0" style="overflow:visible"><text transform="" x="264.75" y="1" class="sc-frpNVO gSsUEN" text-anchor="start"><tspan x="264.75" dy="0.71em">5.0%</tspan></text></svg><g><text x="1" y="47" transform="translate(0 7.200000000000001)" class="sc-iYUHtB ljwMKG"><tspan x="1" dy="0">Eunice Ruiz</tspan></text><circle r="6" cx="449.94423791821555" cy="47" stroke="#ba4f4f" stroke-width="2" fill="#ba4f4f"></circle><circle r="6" cx="439.9692379182156" cy="47" stroke="#ba4f4f" stroke-width="2" fill="transparent"></circle></g><g><text x="1" y="95" transform="translate(0 -3.599999999999998)" class="sc-iYUHtB ljwMKG"><tspan x="1" dy="0">Frederick</tspan><tspan x="1" dy="21.599999999999998">Montgomery</tspan></text><circle r="6" cx="440.510783200908" cy="95" stroke="#ba4f4f" stroke-width="2" fill="#ba4f4f"></circle><circle r="6" cx="456.47078320090804" cy="95" stroke="#ba4f4f" stroke-width="2" fill="transparent"></circle></g><g><text x="1" y="143" transform="translate(0 -3.599999999999998)" class="sc-iYUHtB ljwMKG"><tspan x="1" dy="0">William Marshall-</tspan><tspan x="1" dy="21.599999999999998">Doyle</tspan></text><circle r="6" cx="399.200115785411" cy="143" stroke="#d9a95f" stroke-width="2" fill="#d9a95f"></circle><circle r="6" cx="395.210115785411" cy="143" stroke="#d9a95f" stroke-width="2" fill="transparent"></circle></g><g><text x="1" y="191" transform="translate(0 7.200000000000001)" class="sc-iYUHtB ljwMKG"><tspan x="1" dy="0">Alice Tate</tspan></text><circle r="6" cx="373.3476394849786" cy="191" stroke="#d9a95f" stroke-width="2" fill="#d9a95f"></circle><circle r="6" cx="437.18763948497855" cy="191" stroke="#ba4f4f" stroke-width="2" fill="transparent"></circle></g><g><text x="1" y="239" transform="translate(0 7.200000000000001)" class="sc-iYUHtB ljwMKG"><tspan x="1" dy="0">Mamie White</tspan></text><circle r="6" cx="231.56078610603288" cy="239" stroke="#abc5d2" stroke-width="2" fill="#abc5d2"></circle><circle r="6" cx="295.4007861060329" cy="239" stroke="#d9a95f" stroke-width="2" fill="transparent"></circle></g><g><text x="1" y="287" transform="translate(0 -3.599999999999998)" class="sc-iYUHtB ljwMKG"><tspan x="1" dy="0">Wayne Mills</tspan><tspan x="1" dy="21.599999999999998">Caldwell Singleton …</tspan></text><circle r="6" cx="211.84002315708221" cy="287" stroke="#abc5d2" stroke-width="2" fill="#abc5d2"></circle><circle r="6" cx="255.73002315708223" cy="287" stroke="#abc5d2" stroke-width="2" fill="transparent"></circle></g></svg>