<svg width="16" height="16" viewBox="0 0 16 16" fill="none" xmlns="http://www.w3.org/2000/svg">
<rect width="16" height="16" rx="8" fill="#007540"/>
<path d="M5.89443 7.55279C5.64744 7.05881 5.04676 6.85858 4.55279 7.10557C4.05881 7.35256 3.85858 7.95324 4.10557 8.44721L5.89443 7.55279ZM6 10L5.10557 10.4472C5.23219 10.7004 5.46022 10.8881 5.73307 10.9637C6.00592 11.0393 6.29802 10.9957 6.53688 10.8437L6 10ZM12.0369 7.34366C12.5028 7.04715 12.6402 6.42907 12.3437 5.96312C12.0472 5.49718 11.4291 5.35983 10.9631 5.65634L12.0369 7.34366ZM4.10557 8.44721L5.10557 10.4472L6.89443 9.55279L5.89443 7.55279L4.10557 8.44721ZM6.53688 10.8437L12.0369 7.34366L10.9631 5.65634L5.46312 9.15634L6.53688 10.8437Z" fill="white"/>
</svg>
