<svg width="16" height="16" viewBox="0 0 16 16" fill="none" xmlns="http://www.w3.org/2000/svg">
<g clip-path="url(#clip0_3767_50130)">
<path d="M5 9.5L8 6.5L11 9.5" stroke="#171C2B" stroke-linecap="round" stroke-linejoin="round"/>
<path d="M8 6.5V15.5" stroke="#171C2B" stroke-linecap="round" stroke-linejoin="round"/>
<path d="M10.5 12.5H12C12.4892 12.5003 12.9731 12.3981 13.4204 12.1999C13.8677 12.0017 14.2685 11.7119 14.5969 11.3493C14.9252 10.9866 15.174 10.5591 15.3269 10.0944C15.4799 9.62968 15.5338 9.13806 15.485 8.65124C15.4363 8.16443 15.286 7.69324 15.0439 7.26809C14.8018 6.84294 14.4733 6.47327 14.0795 6.18293C13.6857 5.89259 13.2354 5.68803 12.7577 5.58246C12.28 5.47689 11.7854 5.47264 11.306 5.57C11.0456 4.60173 10.5255 3.72306 9.80186 3.02899C9.07825 2.33492 8.17868 1.85186 7.20041 1.63205C6.22213 1.41223 5.20238 1.46402 4.25141 1.78181C3.30044 2.09961 2.45443 2.67131 1.80486 3.43512C1.1553 4.19893 0.726882 5.12577 0.565943 6.11544C0.405005 7.1051 0.517666 8.11994 0.891744 9.05021C1.26582 9.98048 1.88709 10.7908 2.68836 11.3935C3.48964 11.9963 4.44043 12.3685 5.43795 12.47" stroke="#171C2B" stroke-linecap="round" stroke-linejoin="round"/>
</g>
<defs>
<clipPath id="clip0_3767_50130">
<rect width="16" height="16" fill="white"/>
</clipPath>
</defs>
</svg>
