<svg width="1000" height="1000" viewBox="0 0 1000 1000" fill="none" xmlns="http://www.w3.org/2000/svg">
<path d="M572.676 925.234L585.777 1000C611.977 995.639 637.555 988.785 661.884 980.685L635.683 909.034C615.72 915.888 593.886 921.495 572.676 925.234ZM325.016 976.324C349.345 985.047 374.922 992.523 400.499 997.508L413.599 922.742C391.765 918.38 371.179 912.773 350.593 905.296L325.016 976.324ZM424.828 915.265C445.415 919.003 466.625 920.872 488.459 921.495V845.483C471.616 844.86 454.772 842.991 438.553 840.499L424.828 915.265ZM557.704 841.122L570.805 915.888C592.015 912.15 612.601 907.165 632.564 900.312L606.363 828.66C590.767 834.268 574.548 838.006 557.704 841.122ZM354.336 895.95C374.298 903.427 394.261 909.034 415.471 913.396L428.571 838.629C411.728 834.891 396.132 830.53 379.913 824.922L354.336 895.95ZM615.721 826.168L641.921 897.819C661.884 890.343 681.846 881.62 700.561 871.651L662.508 805.608C647.536 813.084 631.94 819.938 615.721 826.168ZM774.797 832.399L823.456 890.343C844.042 873.52 862.757 854.829 880.224 835.514L822.208 786.916C807.86 802.492 792.264 818.069 774.797 832.399ZM111.666 826.791C128.509 846.729 147.224 865.421 166.563 882.243L215.221 824.299C199.002 809.969 183.406 794.393 169.682 778.193L111.666 826.791ZM228.946 823.676C245.165 837.383 262.633 849.844 280.724 860.436L318.777 794.393C304.429 785.67 290.705 775.701 278.228 765.109L228.946 823.676ZM499.688 760.748C499.064 760.748 498.44 760.748 497.817 760.748V836.76C498.44 836.76 499.064 836.76 499.688 836.76C515.284 836.76 531.503 835.514 546.475 833.645L533.375 758.878C522.146 759.502 510.917 760.748 499.688 760.748ZM439.8 831.153C455.396 834.268 471.616 835.514 488.459 836.137V760.125C476.606 759.502 464.754 758.255 452.901 756.386L439.8 831.153ZM542.732 757.009L555.833 831.776C572.052 829.284 588.272 824.922 603.244 819.938L577.043 748.91C566.438 752.025 554.585 755.14 542.732 757.009ZM383.656 816.199C398.628 821.807 414.223 826.168 430.443 829.284L443.543 754.517C431.691 752.025 420.462 748.91 409.233 744.548L383.656 816.199ZM719.9 766.978L768.559 824.922C784.779 811.215 800.374 796.262 814.722 780.685L756.706 732.087C745.477 743.925 733.001 755.763 719.9 766.978ZM586.4 745.794L612.601 816.823C628.197 811.215 643.169 804.984 657.517 796.885L619.463 730.841C608.858 737.072 597.629 741.433 586.4 745.794ZM331.254 791.277C344.978 799.377 359.95 806.231 374.922 812.461L401.123 740.81C389.894 736.449 379.289 730.841 369.308 725.234L331.254 791.277ZM177.168 771.963C190.892 788.162 205.864 803.115 221.46 816.823L270.118 758.878C257.642 747.664 245.789 735.826 235.184 723.365L177.168 771.963ZM627.573 727.103L665.627 792.523C679.975 784.424 693.699 775.078 706.8 765.109L658.141 707.165C648.16 714.642 638.178 720.872 627.573 727.103ZM283.843 758.255C296.319 768.847 309.42 778.193 323.144 786.916L361.198 720.872C351.216 714.642 341.859 707.788 332.502 700.312L283.843 758.255ZM762.944 724.611L820.961 773.209C834.685 757.009 847.785 739.564 859.014 721.495L792.888 683.489C784.155 697.819 774.173 711.526 762.944 724.611ZM665.003 701.558L713.662 759.502C726.138 748.91 737.991 737.695 749.22 725.234L691.204 676.635C683.094 685.358 674.361 693.458 665.003 701.558ZM499.688 675.389C499.064 675.389 498.44 675.389 497.817 675.389V751.402C498.44 751.402 499.064 751.402 499.688 751.402C510.293 751.402 520.898 750.779 531.503 749.533L518.403 674.766C512.165 674.766 505.926 675.389 499.688 675.389ZM454.772 747.041C466.001 748.91 477.23 750.156 488.459 750.779V674.766C481.597 674.143 474.735 673.52 467.873 672.274L454.772 747.041ZM242.67 717.134C253.275 729.595 264.504 740.81 276.357 752.025L325.016 694.081C316.282 685.981 308.172 677.882 300.686 668.536L242.67 717.134ZM527.76 672.897L540.861 747.664C552.09 745.794 563.319 743.302 573.924 739.564L547.723 667.913C541.485 670.405 534.623 671.651 527.76 672.897ZM412.976 735.826C423.581 739.564 434.186 742.679 445.415 745.171L458.515 670.405C451.653 668.536 445.415 666.667 439.177 664.174L412.976 735.826ZM557.08 665.421L583.281 736.449C593.886 732.71 604.492 728.349 614.473 722.741L576.419 656.698C570.181 660.436 563.943 662.928 557.08 665.421ZM373.674 717.134C383.656 722.741 393.637 727.726 403.618 732.087L429.819 660.436C423.581 657.944 417.342 654.829 411.728 651.09L373.674 717.134ZM585.153 652.959L623.206 718.38C633.188 712.773 642.545 706.542 651.903 699.688L603.244 641.745C597.006 646.106 591.391 649.844 585.153 652.959ZM697.442 669.782L755.458 718.38C766.064 705.919 776.045 692.835 784.779 678.505L718.652 640.498C713.038 650.467 705.552 660.436 697.442 669.782ZM338.74 692.835C347.473 700.312 356.207 706.542 366.188 712.773L404.242 646.729C398.628 642.991 393.013 639.252 388.022 634.891L338.74 692.835ZM208.983 669.782C217.093 683.489 226.45 697.196 236.432 709.657L294.448 661.059C286.962 651.713 280.724 642.368 274.485 631.776L208.983 669.782ZM610.106 636.137L658.765 694.081C667.498 686.604 676.232 679.128 683.718 670.405L625.702 621.807C620.711 626.791 615.72 631.776 610.106 636.137ZM103.556 646.729C111.042 666.667 119.775 685.981 130.381 704.05L196.507 666.044C188.397 651.713 181.535 636.137 175.296 620.561L103.556 646.729ZM308.172 662.305C315.658 671.028 323.144 679.128 331.878 686.604L380.536 628.66C375.546 624.299 370.555 619.315 366.188 613.707L308.172 662.305ZM724.267 632.399L789.769 670.405C797.879 656.075 805.365 641.121 811.603 626.168L740.487 600C736.12 611.215 730.505 621.807 724.267 632.399ZM631.94 614.33L689.956 662.928C697.442 654.206 704.304 644.86 710.543 635.514L644.417 597.508C641.297 603.738 636.931 609.346 631.94 614.33ZM184.03 617.445C189.644 632.399 196.507 647.352 204.616 661.682L270.118 623.676C264.504 613.084 259.513 602.492 255.147 591.9L184.03 617.445ZM283.219 627.414C288.833 637.383 295.072 646.106 302.558 654.829L360.574 606.231C356.207 600.623 352.464 595.016 349.345 589.408L283.219 627.414ZM905.178 649.844L976.294 676.012C985.652 651.09 992.514 625.545 998.128 599.377L923.269 586.293C918.902 608.1 912.664 629.284 905.178 649.844ZM0 591.277C4.99064 617.445 11.8528 642.368 19.9626 667.29L91.0793 641.122C84.2171 620.561 78.6027 600 74.2359 578.193L0 591.277ZM824.704 620.561L896.444 646.729C903.93 626.791 910.168 606.23 914.535 584.424L839.676 571.34C835.309 588.162 830.318 604.361 824.704 620.561ZM650.655 590.031L716.157 628.037C721.772 618.068 727.386 608.1 731.753 596.885L660.012 570.716C657.517 577.57 653.774 583.801 650.655 590.031ZM84.2171 576.947C87.9601 598.131 93.5746 618.692 100.437 638.006L172.177 611.838C166.563 596.262 162.196 580.062 159.077 563.24L84.2171 576.947ZM264.504 588.785C268.247 599.377 273.238 609.346 278.228 619.315L344.354 581.308C341.235 575.078 338.116 568.847 335.621 562.617L264.504 588.785ZM744.229 591.277L815.97 617.445C821.585 601.869 826.575 586.293 829.694 569.47L754.835 556.386C751.715 568.224 748.596 580.062 744.229 591.277ZM168.434 561.994C171.553 578.193 175.92 593.769 180.911 608.723L252.027 582.555C248.284 571.34 245.165 560.125 243.294 548.287L168.434 561.994ZM663.755 561.994L734.872 588.162C739.239 577.57 742.358 566.355 744.853 554.517L669.994 541.433C668.746 548.287 666.251 555.14 663.755 561.994ZM252.651 547.04C254.523 558.255 257.642 568.847 261.385 579.439L332.502 553.271C330.63 547.04 328.759 540.187 327.511 533.333L252.651 547.04ZM162.82 504.05C162.82 520.249 164.691 536.449 167.187 552.648L242.046 539.564C240.175 527.726 239.551 516.511 238.927 504.05H162.82ZM248.284 504.05C248.284 515.265 249.532 526.48 250.78 537.695L325.639 524.611C324.392 517.757 324.392 510.903 323.768 504.05H248.284ZM248.284 494.704H324.392C324.392 487.85 325.016 480.997 326.263 474.143L251.404 461.059C248.908 471.651 248.284 482.866 248.284 494.704ZM162.82 494.704H238.927C238.927 482.866 240.175 471.028 242.046 459.19L167.187 446.106C164.067 461.682 162.82 477.882 162.82 494.704ZM76.7311 494.704H152.838C152.838 477.882 154.71 461.059 157.205 444.237L82.3457 431.153C79.2265 451.713 77.355 472.897 76.7311 494.704ZM668.122 448.598C669.994 455.452 671.865 462.305 673.113 469.782L747.972 456.698C746.101 444.86 742.982 433.645 739.863 422.43L668.122 448.598ZM252.651 451.713L327.511 464.798C328.759 457.944 330.63 451.09 333.125 444.86L262.009 418.692C257.642 429.283 254.523 440.498 252.651 451.713ZM748.596 419.315C752.339 431.153 755.458 442.991 757.33 454.829L832.189 441.745C829.07 424.922 825.327 408.723 819.713 393.146L748.596 419.315ZM168.434 436.76L243.294 449.844C245.789 438.006 248.908 426.791 252.651 415.576L181.535 389.408C175.92 404.984 171.553 420.561 168.434 436.76ZM656.269 419.938C659.389 426.168 662.508 433.022 665.003 439.875L736.12 413.707C732.377 402.492 727.386 391.9 721.772 381.931L656.269 419.938ZM264.504 409.969L335.621 436.137C338.116 429.907 341.235 423.053 344.354 417.445L278.228 379.439C273.238 388.785 268.871 399.377 264.504 409.969ZM828.447 390.654C834.061 406.854 837.804 423.676 840.923 440.498L915.783 427.414C912.04 405.607 906.425 385.047 899.563 364.486L828.447 390.654ZM84.2171 421.807L159.077 434.891C162.196 418.069 166.563 401.869 172.177 386.293L100.437 360.125C93.5746 380.062 87.9601 400.623 84.2171 421.807ZM639.426 393.146C643.793 398.754 648.16 404.984 651.903 411.215L717.405 373.209C711.79 363.24 704.928 353.271 697.442 343.925L639.426 393.146ZM283.843 370.717L349.345 408.723C353.088 402.492 356.831 396.885 361.198 391.277L303.182 342.679C296.319 351.402 289.457 360.748 283.843 370.717ZM730.505 376.947C736.12 387.539 741.11 398.754 745.477 410.592L816.594 384.424C810.979 368.847 804.117 353.271 796.007 338.941L730.505 376.947ZM184.03 380.685L255.147 406.854C259.513 395.639 264.504 385.047 270.118 374.455L204.616 336.449C197.13 350.156 190.268 365.109 184.03 380.685ZM908.921 361.371C915.783 381.931 921.397 403.738 925.14 425.545L1000 412.461C995.633 385.67 988.771 360.125 980.037 335.202L908.921 361.371ZM0 406.854L74.8596 419.938C78.6026 398.131 84.841 376.947 91.7031 357.009L19.9626 330.841C11.8528 355.763 4.99064 380.685 0 406.854ZM618.216 370.093C623.83 375.078 628.821 380.062 633.188 385.67L691.204 337.072C683.718 328.349 675.608 319.626 666.875 312.15L618.216 370.093ZM309.42 335.202L367.436 383.801C371.803 378.193 376.793 373.209 382.408 368.847L333.749 310.903C325.016 318.38 316.906 326.48 309.42 335.202ZM804.117 334.579C812.227 349.533 819.713 365.109 825.328 381.931L897.068 355.763C889.582 335.202 880.848 315.265 870.243 296.573L804.117 334.579ZM704.928 338.318C712.414 347.664 719.276 358.255 725.515 368.847L791.017 330.841C782.907 316.511 772.926 302.804 762.944 289.72L704.928 338.318ZM209.607 327.726L275.109 365.732C281.347 355.763 288.21 345.794 295.696 336.449L237.679 287.85C227.698 300.312 218.341 314.019 209.607 327.726ZM593.263 351.402C599.501 355.14 605.115 359.502 611.354 364.486L660.012 306.542C651.279 299.065 641.298 292.212 631.316 285.981L593.263 351.402ZM340.611 304.673L389.27 362.617C394.885 358.255 400.499 353.894 406.737 350.156L368.684 284.112C358.702 290.966 349.345 297.819 340.611 304.673ZM565.19 337.072C572.052 339.564 578.291 342.679 585.153 346.417L623.206 280.997C613.225 275.389 602.62 270.405 591.391 266.044L565.19 337.072ZM376.794 280.374L414.847 345.794C421.085 342.056 427.324 339.564 434.186 336.449L407.985 264.798C397.38 269.782 387.399 274.766 376.794 280.374ZM535.246 327.726C542.732 328.972 549.595 331.464 556.457 333.333L582.657 262.305C571.429 258.567 560.2 255.452 548.971 252.96L535.246 327.726ZM417.342 262.305L443.543 333.333C450.405 330.841 457.268 328.972 464.13 327.726L451.029 252.96C439.176 255.452 427.948 258.567 417.342 262.305ZM460.387 251.09L473.487 325.857C480.349 324.611 487.835 323.988 495.321 323.988V248.598C482.845 248.598 471.616 249.221 460.387 251.09ZM504.679 323.988C512.165 323.988 519.027 324.611 526.513 325.857L539.613 251.09C528.384 249.221 516.531 248.598 504.679 247.975V323.988ZM673.113 304.673C682.47 312.773 690.58 321.495 698.69 330.841L756.706 282.243C746.101 269.782 734.248 257.321 721.772 246.729L673.113 304.673ZM243.918 280.374L301.934 328.972C310.044 319.626 318.153 311.526 327.511 303.427L278.852 245.483C266.376 256.075 254.523 267.913 243.918 280.374ZM135.371 285.358L201.497 323.364C210.231 309.034 219.588 294.704 230.817 281.62L172.801 233.022C158.453 249.221 146.6 266.667 135.371 285.358ZM636.307 277.259C646.912 283.489 656.893 290.966 666.251 298.442L714.909 240.498C701.809 229.907 688.709 219.938 674.361 211.215L636.307 277.259ZM285.714 239.252L334.373 297.196C343.73 289.72 353.712 282.866 363.693 276.012L325.639 210.592C311.915 219.315 298.191 228.66 285.714 239.252ZM594.51 256.698C605.739 261.059 616.968 266.667 627.573 272.274L665.627 206.854C651.279 198.754 636.307 191.277 620.711 185.67L594.51 256.698ZM334.373 206.231L372.427 271.651C383.032 266.044 393.637 260.436 405.49 256.075L379.289 185.047C363.693 191.277 348.721 198.131 334.373 206.231ZM728.01 239.252C741.11 250.467 752.963 262.928 764.192 276.012L822.208 227.414C808.484 210.592 792.888 195.639 776.669 181.308L728.01 239.252ZM178.415 225.545L236.432 274.143C247.661 261.059 259.513 249.221 272.614 238.006L223.955 180.062C207.112 194.393 192.14 209.346 178.415 225.545ZM550.218 243.614C562.071 246.106 573.924 249.221 585.777 252.96L611.977 181.931C596.382 176.324 580.162 171.963 563.943 168.847L550.218 243.614ZM388.022 181.931L414.223 252.96C425.452 249.221 437.305 245.483 449.158 243.614L436.057 168.847C419.838 171.963 403.618 176.324 388.022 181.931ZM445.415 166.978L458.515 241.745C470.368 239.875 482.845 238.629 494.697 238.629V162.617C477.854 163.24 461.634 164.486 445.415 166.978ZM504.679 238.629C517.155 238.629 529.008 239.875 540.861 241.745L553.961 166.978C537.742 164.486 520.898 162.617 504.055 162.617V238.629H504.679ZM678.727 203.115C693.699 211.838 707.424 221.807 721.148 233.022L769.806 175.078C752.963 161.371 735.496 148.91 716.781 137.695L678.727 203.115ZM782.907 173.832C799.75 188.162 815.346 204.361 829.694 221.184L887.711 172.586C870.243 152.025 851.528 133.333 831.566 115.888L782.907 173.832ZM112.913 170.717L170.93 219.315C185.278 202.492 200.873 186.916 217.093 172.586L168.434 114.642C148.472 132.087 129.757 150.779 112.913 170.717ZM291.329 132.087L329.382 198.131C344.354 190.031 359.326 182.555 375.546 176.324L349.345 104.673C329.382 112.773 310.044 121.495 291.329 132.087ZM565.19 159.502C582.034 162.617 598.877 167.601 615.097 173.209L641.297 101.558C621.335 94.081 600.125 88.4735 578.914 84.7352L565.19 159.502ZM358.702 101.558L384.903 173.209C401.123 167.601 417.342 163.24 434.186 160.125L421.085 85.3583C399.875 88.4735 378.665 94.7041 358.702 101.558ZM504.679 153.271C522.146 153.271 538.989 155.14 555.833 157.632L568.933 82.8661C547.723 79.1277 526.513 77.2586 504.679 77.2586V153.271ZM580.162 75.3894C601.996 79.7508 623.83 85.3583 644.417 92.8349L670.617 21.8069C645.664 13.0841 620.087 6.23053 593.886 1.24611L580.162 75.3894ZM329.382 21.1838L355.583 92.2118C376.17 84.7352 397.38 79.1277 419.838 74.7664L406.737 0C379.913 5.60748 354.336 12.4611 329.382 21.1838Z" fill="white"/>
</svg>
