<svg xmlns="http://www.w3.org/2000/svg" width="46" height="40" viewBox="0 0 46 40" fill="none">
<path d="M10 9H46V38C46 38.5304 45.7893 39.0391 45.4142 39.4142C45.0391 39.7893 44.5304 40 44 40H12C11.4696 40 10.9609 39.7893 10.5858 39.4142C10.2107 39.0391 10 38.5304 10 38V9Z" fill="#185C37"/>
<path d="M12 0H28V10H10V2C10 1.46957 10.2107 0.960859 10.5858 0.585786C10.9609 0.210714 11.4696 0 12 0Z" fill="#21A366"/>
<path d="M28 0H44C44.5304 0 45.0391 0.210714 45.4142 0.585786C45.7893 0.960859 46 1.46957 46 2V10H28V0Z" fill="#33C481"/>
<path d="M28 10H10V20H28V10Z" fill="#107C41"/>
<path d="M46 10H28V20H46V10Z" fill="#21A366"/>
<path d="M46 20H28V30H46V20Z" fill="#107C41"/>
<path opacity="0.4" d="M22 11H10V33H22C22.5304 33 23.0391 32.7893 23.4142 32.4142C23.7893 32.0391 24 31.5304 24 31V13C24 12.4696 23.7893 11.9609 23.4142 11.5858C23.0391 11.2107 22.5304 11 22 11Z" fill="black"/>
<path d="M20 9H2C0.89543 9 0 9.89543 0 11V29C0 30.1046 0.89543 31 2 31H20C21.1046 31 22 30.1046 22 29V11C22 9.89543 21.1046 9 20 9Z" fill="#148349"/>
<path d="M5.39599 13.375H8.56299L11.125 18.479L13.896 13.375H16.813L12.792 19.979L16.938 26.625H13.833L11 21.313L8.18799 26.625H5.06299L9.29199 19.979L5.39599 13.375Z" fill="white"/>
</svg>