<svg width="16" height="16" viewBox="0 0 16 16" fill="none" xmlns="http://www.w3.org/2000/svg">
<g clip-path="url(#clip0_3676_10614)">
<path d="M8 0C3.6 0 0 3.6 0 8C0 12.4 3.6 16 8 16C12.4 16 16 12.4 16 8C16 3.6 12.4 0 8 0ZM8 12C7.4 12 7 11.6 7 11C7 10.4 7.4 10 8 10C8.6 10 9 10.4 9 11C9 11.6 8.6 12 8 12ZM9 8C9 8.55229 8.55229 9 8 9C7.44772 9 7 8.55229 7 8V5C7 4.44772 7.44772 4 8 4C8.55229 4 9 4.44772 9 5V8Z" fill="#FF8000"/>
</g>
<defs>
<clipPath id="clip0_3676_10614">
<rect width="16" height="16" fill="white"/>
</clipPath>
</defs>
</svg>
